<svg xmlns="http://www.w3.org/2000/svg" width="100" height="100" viewBox="0 0 100 100">
  <path id="email-round" d="M49.993,0c21.5-.006,40.055,12.454,47.058,32.513a69.779,69.779,0,0,1,2,7.724A50.007,50.007,0,1,1,49.993,0ZM26.218,64.589,42.393,48.375,26.218,35.187ZM44.175,49.823,27.5,66.542H72.343L56.412,49.823l-5.256,4.483h0a1.155,1.155,0,0,1-1.465,0l-5.516-4.5Zm13.978-1.481L73.767,64.719V35.04l-15.614,13.3ZM27.666,33.429l22.7,18.517L72.131,33.429ZM80.878,19.078A43.7,43.7,0,1,0,93.685,49.994,43.711,43.711,0,0,0,80.878,19.078Z" transform="translate(-0.016)" fill="#fff"/>
</svg>
