<svg xmlns="http://www.w3.org/2000/svg" width="100" height="100" viewBox="0 0 100 100">
  <path id="linkedin-round-line-color" d="M50,0A50,50,0,1,1,14.645,14.645,49.844,49.844,0,0,1,50,0ZM44.484,42.523h8v4.1H52.6a8.87,8.87,0,0,1,7.9-4.1c8.448,0,10.01,5.257,10.01,12.1V68.55H62.167V56.2c0-2.944-.061-6.734-4.338-6.734-4.344,0-5.01,3.2-5.01,6.519V68.55H44.484V42.523ZM38.7,35.293a4.339,4.339,0,1,1-4.338-4.338A4.34,4.34,0,0,1,38.7,35.293Zm-8.677,7.23H38.7V68.55H30.023ZM81.988,18.012A45.24,45.24,0,1,0,95.238,50,45.1,45.1,0,0,0,81.988,18.012Z" />
</svg>
